<svg xmlns="http://www.w3.org/2000/svg" width="100" height="100" viewBox="0 0 1024 1024"><path fill="#00AEEC" d="M777.2 298.7l69.6-69.6c15.6-15.6 15.6-40.9 0-56.6-15.6-15.6-40.9-15.6-56.6 0l-81.2 81.2H315l-81.2-81.2c-15.6-15.6-40.9-15.6-56.6 0-15.6 15.6-15.6 40.9 0 56.6l69.6 69.6c-99.7 62.8-161.6 163.7-161.6 277.3 0 141.4 114.6 256 256 256h341.3c141.4 0 256-114.6 256-256 0-113.6-61.9-214.5-161.4-277.3zM341.3 640c-23.5 0-42.7-19.2-42.7-42.7s19.2-42.7 42.7-42.7 42.7 19.2 42.7 42.7-19.1 42.7-42.7 42.7zm341.4 0c-23.5 0-42.7-19.2-42.7-42.7s19.2-42.7 42.7-42.7 42.7 19.2 42.7 42.7-19.2 42.7-42.7 42.7z"/></svg>
